<svg width="707" height="200" viewBox="0 0 707 200" fill="none" xmlns="http://www.w3.org/2000/svg">
<line y1="99.5" x2="707" y2="99.5" stroke="#F7B633"/>
<g filter="url(#filter0_dddd_124_2)">
<rect x="260" y="64" width="187" height="72" rx="10" fill="#3AA0FF"/>
<path d="M283.92 115V87.08H295.48C297.933 87.08 299.787 87.84 301.04 89.36C302.32 90.88 302.96 92.9733 302.96 95.64C302.96 98.3067 302.32 100.4 301.04 101.92C299.787 103.44 297.933 104.2 295.48 104.2H288.92V115H283.92ZM288.92 99.84H294.96C295.813 99.84 296.48 99.6133 296.96 99.16C297.467 98.68 297.72 97.92 297.72 96.88V94.4C297.72 93.36 297.467 92.6133 296.96 92.16C296.48 91.68 295.813 91.44 294.96 91.44H288.92V99.84ZM313.698 115.48C310.925 115.48 308.765 114.6 307.218 112.84C305.698 111.08 304.938 108.32 304.938 104.56C304.938 100.8 305.698 98.04 307.218 96.28C308.765 94.52 310.925 93.64 313.698 93.64C316.471 93.64 318.618 94.52 320.138 96.28C321.685 98.04 322.458 100.8 322.458 104.56C322.458 108.32 321.685 111.08 320.138 112.84C318.618 114.6 316.471 115.48 313.698 115.48ZM313.698 111.56C316.151 111.56 317.378 110.12 317.378 107.24V101.88C317.378 99 316.151 97.56 313.698 97.56C311.245 97.56 310.018 99 310.018 101.88V107.24C310.018 110.12 311.245 111.56 313.698 111.56ZM326.452 115V94.12H331.293V98.4H331.853C332.093 97.0133 332.586 95.96 333.333 95.24C334.106 94.4933 335.106 94.12 336.333 94.12H337.373V99.08H335.773C334.253 99.08 333.119 99.32 332.373 99.8C331.653 100.28 331.293 101.12 331.293 102.32V115H326.452ZM346.861 115C345.181 115 343.968 114.627 343.221 113.88C342.474 113.133 342.101 111.947 342.101 110.32V98H339.341V94.12H340.781C341.474 94.12 341.941 93.96 342.181 93.64C342.448 93.32 342.581 92.8133 342.581 92.12V88.44H346.941V94.12H350.701V98H346.941V111.12H350.381V115H346.861ZM355.382 98H352.622V94.12H355.382V90.88C355.382 88.9867 355.796 87.6 356.622 86.72C357.476 85.84 358.782 85.4 360.542 85.4H364.062V89.28H360.222V94.12H364.062V98H360.222V115H355.382V98ZM374.831 115.48C372.058 115.48 369.898 114.6 368.351 112.84C366.831 111.08 366.071 108.32 366.071 104.56C366.071 100.8 366.831 98.04 368.351 96.28C369.898 94.52 372.058 93.64 374.831 93.64C377.604 93.64 379.751 94.52 381.271 96.28C382.818 98.04 383.591 100.8 383.591 104.56C383.591 108.32 382.818 111.08 381.271 112.84C379.751 114.6 377.604 115.48 374.831 115.48ZM374.831 111.56C377.284 111.56 378.511 110.12 378.511 107.24V101.88C378.511 99 377.284 97.56 374.831 97.56C372.378 97.56 371.151 99 371.151 101.88V107.24C371.151 110.12 372.378 111.56 374.831 111.56ZM392.305 115C390.625 115 389.412 114.627 388.665 113.88C387.945 113.133 387.585 111.96 387.585 110.36V85.4H392.425V111.12H394.825V115H392.305ZM400.688 90.84C399.675 90.84 398.942 90.6267 398.488 90.2C398.035 89.7467 397.808 89.1467 397.808 88.4V87.6C397.808 86.8533 398.035 86.2667 398.488 85.84C398.942 85.3867 399.675 85.16 400.688 85.16C401.702 85.16 402.435 85.3867 402.888 85.84C403.342 86.2667 403.568 86.8533 403.568 87.6V88.4C403.568 89.1467 403.342 89.7467 402.888 90.2C402.435 90.6267 401.702 90.84 400.688 90.84ZM398.288 94.12H403.128V115H398.288V94.12ZM415.847 115.48C413.073 115.48 410.913 114.6 409.367 112.84C407.847 111.08 407.087 108.32 407.087 104.56C407.087 100.8 407.847 98.04 409.367 96.28C410.913 94.52 413.073 93.64 415.847 93.64C418.62 93.64 420.767 94.52 422.287 96.28C423.833 98.04 424.607 100.8 424.607 104.56C424.607 108.32 423.833 111.08 422.287 112.84C420.767 114.6 418.62 115.48 415.847 115.48ZM415.847 111.56C418.3 111.56 419.527 110.12 419.527 107.24V101.88C419.527 99 418.3 97.56 415.847 97.56C413.393 97.56 412.167 99 412.167 101.88V107.24C412.167 110.12 413.393 111.56 415.847 111.56Z" fill="white"/>
</g>
<defs>
<filter id="filter0_dddd_124_2" x="251" y="62" width="205" height="105" filterUnits="userSpaceOnUse" color-interpolation-filters="sRGB">
<feFlood flood-opacity="0" result="BackgroundImageFix"/>
<feColorMatrix in="SourceAlpha" type="matrix" values="0 0 0 0 0 0 0 0 0 0 0 0 0 0 0 0 0 0 127 0" result="hardAlpha"/>
<feOffset dy="1"/>
<feGaussianBlur stdDeviation="1.5"/>
<feColorMatrix type="matrix" values="0 0 0 0 0 0 0 0 0 0 0 0 0 0 0 0 0 0 0.1 0"/>
<feBlend mode="normal" in2="BackgroundImageFix" result="effect1_dropShadow_124_2"/>
<feColorMatrix in="SourceAlpha" type="matrix" values="0 0 0 0 0 0 0 0 0 0 0 0 0 0 0 0 0 0 127 0" result="hardAlpha"/>
<feOffset dy="5"/>
<feGaussianBlur stdDeviation="2.5"/>
<feColorMatrix type="matrix" values="0 0 0 0 0 0 0 0 0 0 0 0 0 0 0 0 0 0 0.09 0"/>
<feBlend mode="normal" in2="effect1_dropShadow_124_2" result="effect2_dropShadow_124_2"/>
<feColorMatrix in="SourceAlpha" type="matrix" values="0 0 0 0 0 0 0 0 0 0 0 0 0 0 0 0 0 0 127 0" result="hardAlpha"/>
<feOffset dy="12"/>
<feGaussianBlur stdDeviation="3.5"/>
<feColorMatrix type="matrix" values="0 0 0 0 0 0 0 0 0 0 0 0 0 0 0 0 0 0 0.05 0"/>
<feBlend mode="normal" in2="effect2_dropShadow_124_2" result="effect3_dropShadow_124_2"/>
<feColorMatrix in="SourceAlpha" type="matrix" values="0 0 0 0 0 0 0 0 0 0 0 0 0 0 0 0 0 0 127 0" result="hardAlpha"/>
<feOffset dy="22"/>
<feGaussianBlur stdDeviation="4.5"/>
<feColorMatrix type="matrix" values="0 0 0 0 0 0 0 0 0 0 0 0 0 0 0 0 0 0 0.01 0"/>
<feBlend mode="normal" in2="effect3_dropShadow_124_2" result="effect4_dropShadow_124_2"/>
<feBlend mode="normal" in="SourceGraphic" in2="effect4_dropShadow_124_2" result="shape"/>
</filter>
</defs>
</svg>
